<svg xmlns="http://www.w3.org/2000/svg" viewBox="0 0 167 24.01"><defs><style>.cls-1{fill:#fff;}</style></defs><g id="Layer_2" data-name="Layer 2"><g id="Layer_1-2" data-name="Layer 1"><g id="Layer_2-2" data-name="Layer 2"><g id="Layer_1-2-2" data-name="Layer 1-2"><g id="Layer_2-2-2" data-name="Layer 2-2"><g id="Layer_1-2-2-2" data-name="Layer 1-2-2"><path class="cls-1" d="M58.4,5h9.3v18.7H72V5h9.2V.31H58.4ZM0,23.71H4.3V.31H0ZM20.5,9.61H7.4v4.9H20.6v9.3h4.2V.31H20.6v9.3ZM50,12.21c0,4.2-3.2,6.8-7.5,6.8s-7.5-2.6-7.5-6.7V.31H30.8v12.1c0,7,5,11.6,11.7,11.6s11.7-4.5,11.7-11.6V.31H50Zm35.6,11.5h21.2V19h-17v-4.9h16.1V9.81H89.8V5h16.9V.31H85.6ZM146.5.31h-4.3v23.3h4.3v-9.3h13.2V9.61H146.5Zm16.3,23.4H167V.31h-4.2ZM126.6,4.81a16.31,16.31,0,0,1,8.4,2.3L137.2,3a18.79,18.79,0,0,0-10.8-3c-8.9,0-15.2,5.4-15.2,12s6.3,12,15.2,12a18.79,18.79,0,0,0,10.8-3L135,17a16.31,16.31,0,0,1-8.4,2.3c-6.9,0-11.3-3.2-11.3-7.2S119.7,4.81,126.6,4.81Z"/></g></g></g></g></g></g></svg>