<?xml version="1.0" encoding="utf-8"?>
<!-- Generator: Adobe Illustrator 26.0.3, SVG Export Plug-In . SVG Version: 6.00 Build 0)  -->
<svg version="1.1" id="Layer_1" xmlns="http://www.w3.org/2000/svg" xmlns:xlink="http://www.w3.org/1999/xlink" x="0px" y="0px"
	 viewBox="0 0 90 24" style="enable-background:new 0 0 90 24;" xml:space="preserve">
<style type="text/css">
	.st0{fill:#FFFFFF;}
</style>
<g id="Layer_2_00000014604816876065101350000017910773252623663546_">
	<g id="Layer_1-2">
		<g>
			<g>
				<path class="st0" d="M10.3,0.3H0V24h10.3V0.3z"/>
				<path class="st0" d="M12.3,9.7l10.5-9.4h11.7L21.6,11.9L34.9,24H23.1l-10.7-9.6c-1.3-1.1-1.9-1.9-1.9-2.4
					c0.1-0.5,0.3-0.9,0.6-1.2L12.3,9.7z"/>
				<path class="st0" d="M64.9,3.2c-1.3-2.1-4-3.2-8-3.2s-6.8,1-8.1,3.2L35.7,24h10.7l3.2-5.1h14.5l3.2,5.1H78L64.9,3.2z M52.7,14.1
					l3.6-7.7l4.8,7.7H52.7z"/>
				<path class="st0" d="M90,0.3H79.7V24H90V0.3z"/>
			</g>
		</g>
	</g>
</g>
</svg>
