<?xml version="1.0" encoding="utf-8"?>
<!-- Generator: Adobe Illustrator 26.0.3, SVG Export Plug-In . SVG Version: 6.00 Build 0)  -->
<svg version="1.1" id="Layer_1" xmlns="http://www.w3.org/2000/svg" xmlns:xlink="http://www.w3.org/1999/xlink" x="0px" y="0px"
	 viewBox="0 0 149.5 33" style="enable-background:new 0 0 149.5 33;" xml:space="preserve">
<style type="text/css">
	.st0{fill:#FFFFFF;stroke:#FFFFFF;}
</style>
<g id="Layer_2_00000115487485604925480450000009623826869274182792_">
	<g id="Layer_1-2">
		<g id="Layer_2-2">
			<g id="Layer_1-2-2">
				<path class="st0" d="M9.9,9.7c-1.4,0-2.8,0.4-4,1.1c-1.1,0.6-2,1.5-2.8,2.6v-2c0-0.4-0.1-0.7-0.3-1C2.6,10.1,2.5,10,2.3,10
					C2.2,9.9,2,9.9,1.8,9.9c-0.3,0-0.7,0.1-0.9,0.4c-0.1,0.1-0.2,0.3-0.3,0.4c-0.1,0.2-0.1,0.4-0.1,0.5v19.7c0,0.2,0,0.4,0.1,0.5
					c0.1,0.2,0.2,0.3,0.3,0.4c0.5,0.5,1.4,0.5,1.9,0c0.1-0.1,0.2-0.3,0.3-0.4c0.1-0.2,0.1-0.3,0.1-0.5V18.6c0-1.1,0.3-2.3,0.8-3.3
					c0.6-1,1.4-1.7,2.4-2.3c1.1-0.6,2.3-0.9,3.5-0.8c0.3,0,0.7,0,1,0.1c0.6,0.2,1.2,0.1,1.7-0.1c0.2-0.2,0.4-0.4,0.4-0.7
					c0-0.1,0-0.2,0-0.4C13,10.2,12,9.7,9.9,9.7z"/>
				<path class="st0" d="M32.9,11.1c-1.6-1-3.4-1.4-5.3-1.4c-1.9,0-3.8,0.5-5.4,1.4c-1.6,1-2.8,2.4-3.7,4.1
					c-0.9,1.8-1.3,3.8-1.3,5.9c0,2.1,0.5,4.1,1.4,5.9c0.9,1.7,2.3,3,3.9,4c1.7,1,3.7,1.5,5.6,1.5c1.4,0,2.7-0.3,4-0.8
					c1.2-0.4,2.4-1.1,3.4-2c0.1-0.1,0.2-0.2,0.3-0.4c0.1-0.1,0.1-0.3,0.1-0.5c0-0.2,0-0.4-0.1-0.5c-0.2-0.4-0.7-0.7-1.2-0.7
					c-0.3,0-0.7,0.1-0.9,0.4c-0.7,0.6-1.5,1.1-2.5,1.4c-1,0.3-2,0.5-3.1,0.5c-1.4,0-2.9-0.3-4.1-1c-1.2-0.7-2.3-1.7-3-2.9
					c-0.7-1.2-1.1-2.6-1.2-4h16.6c0.2,0,0.3,0,0.5-0.1c0.2-0.1,0.3-0.2,0.4-0.3c0.1-0.1,0.2-0.3,0.3-0.4c0.1-0.2,0.1-0.3,0.1-0.5
					c0-2-0.4-3.9-1.3-5.6C35.7,13.5,34.4,12.1,32.9,11.1z M35.2,19.6H20c0.2-2,1.1-3.9,2.5-5.3c2.9-2.7,7.5-2.7,10.4,0
					C34.3,15.7,35.1,17.6,35.2,19.6z"/>
				<path class="st0" d="M58.6,22c-1.2-1.1-3.3-1.9-6.1-2.3c-1.6-0.1-3.2-0.6-4.6-1.4c-0.4-0.3-0.8-0.6-1-1.1
					c-0.2-0.4-0.3-0.9-0.3-1.4c0-0.5,0.1-1,0.4-1.4c0.2-0.4,0.6-0.8,1-1.1c1.1-0.7,2.5-1.1,3.8-1c2.2-0.1,4.3,0.8,5.6,2.6
					c0.1,0.2,0.3,0.3,0.5,0.4c0.2,0.1,0.4,0.2,0.6,0.1c0.2,0,0.5-0.1,0.7-0.2c0.2-0.1,0.4-0.2,0.5-0.4c0.1-0.2,0.2-0.4,0.2-0.6
					c0-0.3-0.1-0.6-0.3-0.8c-1.8-2.5-4.7-3.8-7.7-3.7c-2-0.1-4,0.5-5.6,1.7c-1.4,1.1-2.2,2.8-2.1,4.6c0,0.8,0.2,1.5,0.5,2.2
					c0.3,0.7,0.8,1.3,1.5,1.7c1.7,1.2,3.8,2,5.9,2.2c4,0.6,6,1.9,6,3.9c0,1.1-0.5,2.2-1.4,2.8c-1.4,0.8-3,1.2-4.6,1.1
					c-2.9,0-5-0.8-6.3-2.4c-0.1-0.2-0.3-0.3-0.4-0.4C45,27,44.8,27,44.6,27c-0.3,0-0.5,0.1-0.8,0.2c-0.2,0.1-0.3,0.3-0.4,0.4
					c-0.3,0.4-0.2,1,0.2,1.4c1,1.2,2.3,2,3.7,2.6c1.5,0.5,3,0.8,4.6,0.8c1.5,0,2.9-0.2,4.3-0.8c1.2-0.4,2.3-1.2,3.2-2.2
					c0.8-0.9,1.2-2.1,1.2-3.4c0-0.8-0.2-1.6-0.5-2.3C59.7,23.1,59.2,22.5,58.6,22z"/>
				<path class="st0" d="M100.2,11.2c-1.7-1-3.7-1.5-5.7-1.5c-2,0-4,0.5-5.8,1.5c-1.7,1-3.1,2.4-4.1,4.1c-1,1.8-1.5,3.8-1.4,5.8
					c0,2,0.5,4,1.5,5.8c0.9,1.7,2.3,3.1,4,4.1c3.6,2,7.9,2,11.5,0c1.7-1,3.1-2.4,4.1-4.1c2-3.6,2-8,0-11.6
					C103.3,13.6,101.9,12.2,100.2,11.2z M94.5,30c-1.5,0-3.1-0.4-4.4-1.1c-1.3-0.8-2.4-1.9-3.1-3.2c-1.5-2.8-1.5-6.2,0-9
					c1.2-2,3.1-3.5,5.3-4.1c2.2-0.6,4.6-0.3,6.6,0.9c1.3,0.8,2.3,1.9,3,3.2c1.5,2.8,1.5,6.2,0,9.1c-0.7,1.3-1.7,2.4-3,3.2
					C97.6,29.6,96.1,30,94.5,30z"/>
				<path class="st0" d="M129.1,11.2c-3.6-2-7.9-2-11.5,0c-1.7,1-3.1,2.4-4.1,4.1c-2,3.6-2,8,0,11.6c0.9,1.7,2.4,3.1,4.1,4.1
					c3.6,2,7.9,2,11.5,0c1.7-1,3.1-2.4,4.1-4.1c2-3.6,2-8,0-11.6C132.2,13.6,130.8,12.2,129.1,11.2z M123.3,30
					c-1.5,0-3.1-0.4-4.4-1.1c-1.3-0.8-2.4-1.9-3.1-3.2c-1.5-2.8-1.5-6.2,0-9c0.7-1.4,1.8-2.5,3.2-3.3c2.7-1.6,6-1.6,8.7,0
					c1.3,0.8,2.4,1.9,3.1,3.2c1.5,2.8,1.5,6.2,0,9.1c-0.7,1.3-1.8,2.4-3.1,3.2C126.4,29.6,124.9,30,123.3,30z"/>
				<path class="st0" d="M148.7,29.9c-0.2-0.2-0.5-0.4-0.8-0.4h-1c-0.4,0-0.8-0.1-1.1-0.3c-0.3-0.2-0.6-0.5-0.8-0.8
					c-0.5-0.9-0.8-1.9-0.8-3V1.9c0-0.2,0-0.4-0.1-0.5c-0.1-0.2-0.2-0.3-0.3-0.4c-0.1-0.1-0.3-0.2-0.4-0.3c-0.2-0.1-0.4-0.1-0.5-0.1
					c-0.4,0-0.7,0.1-1,0.4c-0.1,0.1-0.2,0.3-0.3,0.4c-0.1,0.2-0.1,0.4-0.1,0.5v23.6c-0.1,1.7,0.5,3.5,1.5,4.9
					c0.9,1.2,2.3,1.9,3.8,1.9h0.8c0.2,0,0.4,0,0.5-0.1c0.2-0.1,0.3-0.2,0.4-0.3c0.1-0.1,0.2-0.3,0.3-0.4c0.1-0.2,0.1-0.3,0.1-0.5
					C149,30.6,148.9,30.2,148.7,29.9z"/>
				<path class="st0" d="M77.8,29.5H77c-1.4,0.1-2.7-0.5-3.7-1.4c-0.9-1-1.4-2.4-1.3-3.7V13.2h5.1c0.2,0,0.3,0,0.5-0.1
					c0.2-0.1,0.3-0.2,0.4-0.3c0.1-0.1,0.2-0.3,0.3-0.4c0.1-0.2,0.1-0.3,0.1-0.5c0-0.3-0.1-0.6-0.3-0.9c-0.2-0.2-0.5-0.3-0.9-0.3H72
					V8.5c0-0.2,0-0.4-0.1-0.5c-0.1-0.2-0.2-0.3-0.3-0.5c-0.3-0.3-0.6-0.4-1-0.4c-0.4,0-0.7,0.1-1,0.4c-0.1,0.1-0.2,0.3-0.3,0.5
					c-0.1,0.2-0.1,0.4-0.1,0.6v15.8c0,1.4,0.3,2.8,1,4c0.6,1.2,1.6,2.1,2.8,2.8c1.2,0.7,2.6,1,4,1h0.9c0.4,0,0.7-0.1,1-0.4
					c0.3-0.3,0.4-0.6,0.4-1c0-0.2,0-0.4-0.1-0.6c-0.1-0.2-0.2-0.3-0.3-0.5C78.6,29.6,78.2,29.5,77.8,29.5z"/>
				<path class="st0" d="M72.3,2.3c0,0.9-0.7,1.7-1.6,1.7c0,0,0,0,0,0h-0.1c-0.2,0-0.4-0.1-0.6-0.2c-0.2-0.1-0.4-0.2-0.5-0.4
					c-0.1-0.2-0.3-0.3-0.4-0.5c-0.2-0.4-0.2-0.9,0-1.3c0.1-0.2,0.2-0.4,0.4-0.5C69.6,1,69.8,0.9,70,0.8c0.2-0.1,0.4-0.1,0.6-0.1
					C71.5,0.7,72.3,1.4,72.3,2.3z"/>
			</g>
		</g>
	</g>
</g>
</svg>
