<svg xmlns="http://www.w3.org/2000/svg" viewBox="0 0 145 21.12"><defs><style>.cls-1{fill:#fff;}</style></defs><g id="Layer_2" data-name="Layer 2"><g id="Layer_1-2" data-name="Layer 1"><path class="cls-1" d="M50.73,4.38h8V20.82h3.77V4.38h8V.28H50.73ZM0,20.82H3.69V.28H0ZM17.84,8.4H6.41v4.28H17.84v8.14h3.69V.28H17.84Zm25.57,2.37c0,3.66-2.77,5.93-6.48,5.93s-6.47-2.29-6.48-5.93V.28H26.76V11c0,6.17,4.35,10.17,10.17,10.17S47.1,17.16,47.1,11V.28H43.41ZM74.28,20.82H92.69V16.73H78V12.44h14V8.64H78V4.38H92.69V.29H74.28ZM127.16.29h-3.69V20.83h3.69V12.69h11.43V8.4H127.16Zm14.15,20.54H145V.29h-3.69ZM109.94,4.2a13.81,13.81,0,0,1,7.27,2l1.89-3.56A16,16,0,0,0,109.74,0C102,0,96.52,4.72,96.52,10.53S102,21.07,109.74,21.07a16,16,0,0,0,9.36-2.66l-1.89-3.56a13.81,13.81,0,0,1-7.27,2c-6,0-9.78-2.84-9.78-6.34S103.94,4.21,109.94,4.2Z"/></g></g></svg>